<svg width="96" height="96" xmlns="http://www.w3.org/2000/svg" xmlns:xlink="http://www.w3.org/1999/xlink" xml:space="preserve" overflow="hidden"><g transform="translate(-275 -218)"><path d="M348 265C346.3 265 345 263.7 345 262 345 260.3 346.3 259 348 259 349.7 259 351 260.3 351 262 351 263.7 349.7 265 348 265ZM342 271C340.3 271 339 269.7 339 268 339 266.3 340.3 265 342 265 343.7 265 345 266.3 345 268 345 269.7 343.7 271 342 271ZM336 265C334.3 265 333 263.7 333 262 333 260.3 334.3 259 336 259 337.7 259 339 260.3 339 262 339 263.7 337.7 265 336 265ZM342 253C343.7 253 345 254.3 345 256 345 257.7 343.7 259 342 259 340.3 259 339 257.7 339 256 339 254.3 340.3 253 342 253ZM310 264 306 264 306 268C306 269.1 305.1 270 304 270 302.9 270 302 269.1 302 268L302 264 298 264C296.9 264 296 263.1 296 262 296 260.9 296.9 260 298 260L302 260 302 256C302 254.9 302.9 254 304 254 305.1 254 306 254.9 306 256L306 260 310 260C311.1 260 312 260.9 312 262 312 263.1 311.1 264 310 264ZM346 238C334.2 238 340.2 244 323 244 305.8 244 311.8 238 300 238 287.4 238 271.4 294 288 294 303.3 294 297.5 280 323 280 348.5 280 342.7 294 358 294 374.6 294 358.6 238 346 238Z" stroke="#181717" fill="#FFFFFF"/></g></svg>